<svg width="622" height="112" xmlns="http://www.w3.org/2000/svg"><g stroke="null"><g stroke="null" fill="#5f55af"><path stroke="null" d="M15.4,99.5H6.5C4,99.5,2,97.5,2,95V86.1C2,83.6,4,81.6,6.5,81.6s4.5,2,4.5,4.5v4.5h4.5c2.5,0,4.5,2,4.5,4.5s-2,4.5-4.5,4.5z"/><path stroke="null" d="M6.5,72.8C4,72.8,2,70.8,2,68.3V59.4C2,56.9,4,54.9,6.5,54.9s4.5,2,4.5,4.5v8.9c0,2.5-2,4.5-4.5,4.5z"/><path stroke="null" d="M6.5,46C4,46,2,44,2,41.5V32.6C2,30.1,4,28.1,6.5,28.1s4.5,2,4.5,4.5v8.9C11,44,9,46,6.5,46z"/><path stroke="null" d="M6.5,19.3C4,19.3,2,17.3,2,14.8V5.9C2,3.4,4,1.4,6.5,1.4h8.9c2.5,0,4.5,2,4.5,4.5s-2,4.5-4.5,4.5H10.9v4.5c0,2.5-2,4.5-4.5,4.5z"/><path stroke="null" d="M42.1,10.4H33.2c-2.5,0-4.5-2-4.5-4.5s2-4.5,4.5-4.5h8.9c2.5,0,4.8,2,4.8,4.5s-2.3,4.5-4.8,4.5z"/><path stroke="null" d="M69.1,10.4H60.2c-2.5,0-4.5-2-4.5-4.5s2-4.5,4.5-4.5h8.9c2.5,0,4.5,2,4.5,4.5s-2,4.5-4.5,4.5z"/></g><path stroke="null" fill="#453d83" d="M122.5,19.3c-2.5,0-4.5-2-4.5-4.5V10.3h-4.5C111,10.3,109,8.3,109,5.8s2-4.5,4.5-4.5h8.9c2.5,0,4.5,2,4.5,4.5v8.9c0,2.5-2,4.5-4.5,4.5z"/><path stroke="null" fill="#5f55af" d="M95.8,1.5h-9c-2.5,0-4.5,2-4.5,4.5s2,4.5,4.5,4.5h9c2.5,0,4.5-2,4.5-4.5S98.3,1.5,95.8,1.5z"/><path stroke="null" fill="#453d83" d="M100.3,6c0-2.5-2-4.5-4.5-4.5H91.3v8.9h4.5c2.5,0,4.5-2,4.5-4.5z"/></g><g stroke="null"><path stroke="null" fill="#edf5ff" d="M134.5,22.9H27.7c-2.5,0-4.5,2-4.5,4.5v80.8c0,2.5,2,4.5,4.5,4.5H134.5c2.5,0,4.5-2,4.5-4.5V27.4c0-2.5-2-4.5-4.5-4.5z"/><path stroke="null" fill="#d5e8fe" d="M139,108.1V27.3c0-2.5-2-4.5-4.5-4.5H81.1v89.7h53.4c2.5,0,4.5-2,4.5-4.5z"/><path stroke="null" fill="#6aa9ff" d="M81.1,31.8h-49V97l49-0.7,38.8-0.6,10.2-16.5V31.8h-49z"/><path stroke="null" fill="#4895ff" d="M130.1,79.3V31.9h-49V96.4l38.8-0.6,10.2-16.5z"/><path stroke="null" fill="#97de3d" d="M111,60.1c-1.7-1.7-4.6-1.7-6.3,0L81.1,83.7,72.2,92.6,57.5,77.9c-1.7-1.7-4.6-1.7-6.3,0L32.1,97v6.6h98V79.2L111,60.1z"/><path stroke="null" fill="#59c36a" d="M130.1,79.3L111,60.2c-1.7-1.7-4.6-1.7-6.3,0L81.1,83.8v20h49V79.4z"/><path stroke="null" fill="#fed843" d="M63.3,67.8c-7.4,0-13.4-6-13.4-13.4S55.9,41,63.3,41s13.4,6,13.4,13.4s-6,13.4-13.4,13.4z"/></g><text transform="matrix(1.06,0,0,1.1,-8.4,15.1)" y="64.4" x="158.7" style="fill:#453d83;stroke-width:0;font-size:84px;font-family:Helvetica,Arial,sans-serif;text-anchor:start;opacity:.9;stroke:null;font-weight:bold">PHOTOKIT</text></svg>